<svg width="19" height="20" viewBox="0 0 19 20" fill="none" xmlns="http://www.w3.org/2000/svg">
<path fill-rule="evenodd" clip-rule="evenodd" d="M0.849609 9.72217C0.849609 6.12703 0.849609 4.32946 1.7063 3.03472C2.08886 2.45656 2.584 1.96141 3.16216 1.57886C4.4569 0.722168 6.25447 0.722168 9.84961 0.722168C13.4447 0.722168 15.2423 0.722168 16.5371 1.57886C17.1152 1.96141 17.6104 2.45656 17.9929 3.03472C18.8496 4.32946 18.8496 6.12703 18.8496 9.72217C18.8496 13.3173 18.8496 15.1149 17.9929 16.4096C17.6104 16.9878 17.1152 17.4829 16.5371 17.8655C15.2423 18.7222 13.4447 18.7222 9.84961 18.7222C6.25447 18.7222 4.4569 18.7222 3.16216 17.8655C2.584 17.4829 2.08886 16.9878 1.7063 16.4096C0.849609 15.1149 0.849609 13.3173 0.849609 9.72217ZM14.5089 9.72239C14.5089 12.2957 12.4228 14.3818 9.84945 14.3818C7.27613 14.3818 5.19004 12.2957 5.19004 9.72239C5.19004 7.14907 7.27613 5.06299 9.84945 5.06299C12.4228 5.06299 14.5089 7.14907 14.5089 9.72239ZM9.84945 12.8054C11.5521 12.8054 12.9325 11.4251 12.9325 9.72239C12.9325 8.0197 11.5521 6.63939 9.84945 6.63939C8.14675 6.63939 6.76645 8.0197 6.76645 9.72239C6.76645 11.4251 8.14675 12.8054 9.84945 12.8054ZM14.6929 5.92372C15.2975 5.92372 15.7877 5.43355 15.7877 4.82889C15.7877 4.22424 15.2975 3.73407 14.6929 3.73407C14.0882 3.73407 13.5981 4.22424 13.5981 4.82889C13.5981 5.43355 14.0882 5.92372 14.6929 5.92372Z" fill="#3A3A3A"/>
</svg>
