<svg width="59" height="71" viewBox="0 0 59 71" fill="none" xmlns="http://www.w3.org/2000/svg">
<g clip-path="url(#clip0_345_54)">
<path d="M29.5771 55.3262C41.976 55.3262 52.0273 45.2652 52.0273 32.8542C52.0273 20.4433 41.976 10.3823 29.5771 10.3823C17.1781 10.3823 7.1268 20.4433 7.1268 32.8542C7.1268 45.2652 17.1781 55.3262 29.5771 55.3262Z" fill="#F58449"/>
<path d="M19.2544 4.59644L19.3765 4.96772L17.9019 5.45674L17.7797 5.08545L19.2544 4.59644Z" fill="black"/>
<path d="M21.3692 1.78647L21.7175 3.20822C21.817 3.61573 21.5772 4.03683 21.1882 4.13191L20.8354 4.21794L21.8147 8.22966L21.4642 8.31569L19.7791 1.41291L20.4826 1.24085C20.8716 1.14577 21.2764 1.39707 21.3714 1.78647H21.3692ZM21.0186 1.8725C20.9734 1.68232 20.7743 1.56007 20.573 1.60988L20.2202 1.69591L20.7427 3.83986L21.0955 3.75383C21.299 3.70403 21.4167 3.5048 21.3646 3.29652L21.0186 1.87476V1.8725Z" fill="black"/>
<path d="M24.0041 1.21166L24.954 6.88285C25.0219 7.29715 24.7686 7.68655 24.3547 7.75447C23.9408 7.82465 23.5653 7.53939 23.4975 7.12735L22.5475 1.45617C22.4797 1.05092 22.7352 0.663787 23.1559 0.59134C23.5517 0.525686 23.9317 0.779248 24.0041 1.21166ZM23.6377 1.27279C23.6038 1.0713 23.4251 0.933196 23.2102 0.969419C23.0044 1.00338 22.88 1.19355 22.9139 1.39504L23.8639 7.06623C23.9001 7.27677 24.0855 7.41487 24.2936 7.38091C24.4904 7.34695 24.6238 7.15678 24.5876 6.94624L23.6399 1.27505L23.6377 1.27279Z" fill="black"/>
<path d="M27.2837 6.96213L27.3176 7.34021L25.8565 7.47604L25.2029 0.398949L25.5647 0.36499L26.1822 7.06401L27.2837 6.96213Z" fill="black"/>
<path d="M29.4323 6.89171L29.4414 7.27205L27.9735 7.30601L27.8129 0.199485L28.1748 0.19043L28.3263 6.91435L29.4323 6.88945V6.89171Z" fill="black"/>
<path d="M31.814 2.83938L31.7959 3.21972L30.6921 3.16765L30.5112 6.92127L31.6149 6.97335L31.5968 7.35369L30.1312 7.28351L30.4705 0.186035L31.9361 0.256217L31.918 0.63656L30.8143 0.58449L30.708 2.78731L31.8117 2.83938H31.814Z" fill="black"/>
<path d="M34.2906 3.87415L33.8315 7.60287L33.4628 7.55759L33.9219 3.82887C33.9491 3.61606 33.8066 3.43042 33.6076 3.40551L33.2389 3.36023L32.7345 7.46703L32.3658 7.42175L33.2344 0.371826L33.9717 0.462384C34.4082 0.516719 34.6615 0.872158 34.6095 1.29778L34.4308 2.75123C34.4037 2.96404 34.3064 3.13837 34.1164 3.28326C34.2612 3.42815 34.311 3.65228 34.2929 3.87415H34.2906ZM33.655 3.02743C33.8541 3.05234 34.035 2.90745 34.0599 2.70369L34.2386 1.25024C34.2635 1.04648 34.1232 0.863102 33.9242 0.838199L33.5555 0.79292L33.2864 2.98216L33.655 3.02743Z" fill="black"/>
<path d="M35.0483 7.81782L34.6909 7.75216L35.9756 0.765625L36.333 0.831279L35.0506 7.81782H35.0483Z" fill="black"/>
<path d="M38.8594 2.12157L37.3282 8.3361L36.9663 8.2478L37.9547 4.24062L37.2422 4.06403L36.2538 8.07122L35.8919 7.98292L37.4254 1.76839C37.5204 1.37899 37.9185 1.11637 38.3188 1.21372C38.7078 1.30881 38.9679 1.68462 38.8616 2.12157H38.8594ZM38.0451 3.8716L38.4975 2.03327C38.5472 1.83404 38.4296 1.63482 38.2261 1.58501C38.0316 1.53747 37.8348 1.65972 37.785 1.85895L37.3327 3.69727L38.0451 3.87386V3.8716Z" fill="black"/>
<path d="M41.0578 5.12831L40.9334 5.49959L39.461 5.00605L39.5854 4.63477L41.0578 5.12831Z" fill="black"/>
<path d="M10.7389 58.6069L10.4561 58.8921L9.29813 57.742L9.57858 57.4568L10.7366 58.6069H10.7389Z" fill="black"/>
<path d="M13.0232 60.1012L12.7767 60.4046L11.8765 59.671L9.44739 62.6617L10.3476 63.3952L10.101 63.6986L8.90683 62.7251L13.5005 57.072L14.6947 58.0455L14.4481 58.3489L13.548 57.6154L12.1208 59.3699L13.021 60.1034L13.0232 60.1012Z" fill="black"/>
<path d="M12.6274 65.0001L12.408 65.3238L11.1324 64.459L15.2194 58.4233L15.5338 58.6362L11.6662 64.3481L12.6274 65.0001Z" fill="black"/>
<path d="M19.0192 61.8964L19.1843 61.5432C19.2725 61.353 19.1911 61.1266 19.0011 61.0361C18.8111 60.9478 18.5849 61.0293 18.4944 61.2195L16.0336 66.4673C15.9364 66.6756 16.0246 66.8839 16.2168 66.9744C16.4091 67.065 16.633 66.9812 16.7235 66.791L18.1982 63.6464L17.8544 63.4857L18.0195 63.1325L18.7161 63.4608L17.0741 66.9586C16.9044 67.3208 16.4385 67.511 16.0495 67.3299C15.6695 67.151 15.484 66.7209 15.6808 66.3043L18.1416 61.0565C18.3112 60.6942 18.75 60.4905 19.1662 60.6852C19.5371 60.8595 19.7226 61.3123 19.5371 61.7107L19.372 62.0639L19.0192 61.8986V61.8964Z" fill="black"/>
<path d="M22.0002 61.8736L19.7973 68.0044C19.6593 68.3893 19.2182 68.6134 18.8134 68.4685C18.4085 68.3236 18.1914 67.8935 18.3407 67.4792L20.5436 61.3484L20.91 61.4797L18.7071 67.6105C18.637 67.8074 18.7342 68.0338 18.9423 68.1085C19.1391 68.181 19.3607 68.0678 19.4331 67.8708L21.6361 61.74L22.0025 61.8714L22.0002 61.8736Z" fill="black"/>
<path d="M23.5427 65.0435L23.4455 65.4216L22.3214 65.1318L21.3646 68.8628L22.4887 69.1526L22.3915 69.5306L20.901 69.148L22.7126 62.0913L24.2031 62.4739L24.1059 62.852L22.9818 62.5622L22.4186 64.7537L23.5427 65.0435Z" fill="black"/>
<path d="M25.8587 66.2478L25.2458 70.0535L24.8613 69.9901L25.4742 66.1844C25.5082 65.9671 25.3679 65.7724 25.1599 65.7384L24.7754 65.6773L24.1014 69.8678L23.7169 69.8044L24.8749 62.6096L25.6461 62.7341C26.1008 62.8066 26.3541 63.1824 26.284 63.6193L26.0465 65.1022C26.0103 65.3196 25.9017 65.4939 25.6982 65.6343C25.8452 65.7905 25.8882 66.0191 25.8633 66.25L25.8587 66.2478ZM25.2232 65.3535C25.4313 65.3875 25.6258 65.2471 25.6597 65.0388L25.8995 63.556C25.9334 63.3477 25.7932 63.153 25.5851 63.119L25.2006 63.0556L24.841 65.2901L25.2255 65.3535H25.2232Z" fill="black"/>
<path d="M28.652 63.7142L28.2653 69.5982C28.2359 70.0284 27.8853 70.3566 27.4465 70.3272C27.0077 70.2978 26.6911 69.9265 26.7205 69.4963L27.1072 63.6123C27.1344 63.1935 27.4872 62.8652 27.9373 62.8947C28.3557 62.9218 28.6837 63.2637 28.6543 63.7142H28.652ZM28.263 63.687C28.2766 63.4765 28.1273 63.2976 27.8989 63.2818C27.6795 63.2682 27.5076 63.4267 27.494 63.635L27.1072 69.519C27.0937 69.7386 27.252 69.9197 27.4714 69.9333C27.6817 69.9468 27.8627 69.7884 27.8762 69.5688L28.263 63.6848V63.687Z" fill="black"/>
<path d="M32.3477 64.0134L32.3116 63.624C32.2912 63.4134 32.108 63.2617 31.8977 63.2799C31.6896 63.3002 31.5358 63.4836 31.5539 63.6942L32.0831 69.4672C32.1035 69.6959 32.2867 69.8294 32.497 69.8113C32.7074 69.7932 32.8589 69.6076 32.8408 69.397L32.5242 65.9377L32.1464 65.9717L32.1103 65.5823L32.877 65.5121L33.2298 69.3608C33.266 69.7593 32.9629 70.16 32.5332 70.1985C32.1148 70.237 31.7393 69.9608 31.6964 69.5012L31.1671 63.7281C31.1309 63.3297 31.4046 62.9312 31.8637 62.8905C32.2708 62.8542 32.6621 63.1485 32.7006 63.5878L32.7368 63.9772L32.3477 64.0134Z" fill="black"/>
<path d="M35.0325 63.1437L36.1158 68.9372C36.195 69.3605 35.9349 69.7658 35.5029 69.8473C35.0709 69.9288 34.6728 69.6458 34.5937 69.2247L33.5103 63.4313C33.4334 63.0192 33.6935 62.614 34.1345 62.5302C34.5462 62.4532 34.951 62.7023 35.0325 63.146V63.1437ZM34.6502 63.2162C34.6118 63.0102 34.424 62.8721 34.1979 62.9128C33.983 62.9536 33.8563 63.1505 33.8948 63.3566L34.9782 69.15C35.0189 69.3673 35.2157 69.5032 35.4328 69.4624C35.6386 69.4239 35.7743 69.2247 35.7336 69.0096L34.6502 63.2162Z" fill="black"/>
<path d="M37.1246 61.8826L38.925 68.1446C39.038 68.5386 38.8119 68.9778 38.398 69.0978C37.9841 69.2178 37.5566 68.9959 37.4367 68.5725L35.6364 62.3127L36.0118 62.2041L37.8122 68.4639C37.871 68.6654 38.0836 68.7921 38.2939 68.731C38.4952 68.6721 38.6083 68.4525 38.5518 68.251L36.7514 61.9912L37.1269 61.8826H37.1246Z" fill="black"/>
<path d="M40.5489 64.2646L41.958 67.8484L41.5961 67.991L40.187 64.4072C40.1056 64.2012 39.8862 64.1061 39.6917 64.1831L39.3298 64.3257L40.8814 68.274L40.5195 68.4166L37.8551 61.6384L38.5812 61.3531C39.0086 61.1856 39.418 61.378 39.5786 61.7878L40.1282 63.1847C40.2096 63.3884 40.2028 63.5967 40.0988 63.8186C40.3046 63.8774 40.4607 64.054 40.5534 64.2646H40.5489ZM39.5469 63.8208C39.7414 63.7439 39.8387 63.5243 39.7618 63.3273L39.2122 61.9304C39.1353 61.7357 38.9159 61.6384 38.7191 61.7154L38.3572 61.858L39.1851 63.9612L39.5469 63.8186V63.8208Z" fill="black"/>
<path d="M42.6772 60.1554L45.7713 65.9443L45.4275 66.1277L42.3334 60.3388C42.2339 60.1531 42.0032 60.0829 41.8177 60.1825C41.6255 60.2867 41.5531 60.5176 41.6526 60.7033L44.7467 66.4922L44.4029 66.6755L41.3089 60.8866C41.2093 60.701 40.9718 60.6353 40.7773 60.7395C40.5828 60.8436 40.5127 61.0745 40.6122 61.2602L43.7063 67.0491L43.3625 67.2325L39.9043 60.7644L40.2481 60.581L40.3386 60.7485C40.3612 60.5991 40.5037 60.4452 40.6281 60.3772C40.8316 60.2686 41.0329 60.264 41.2365 60.3478C41.3021 60.1305 41.4219 59.9516 41.6436 59.8339C42.0055 59.6415 42.4646 59.7569 42.6772 60.1554Z" fill="black"/>
<path d="M45.6741 60.443L45.8957 60.7645L44.9413 61.4233L47.1284 64.5973L48.0829 63.9385L48.3045 64.26L47.0357 65.1362L42.9012 59.1345L44.17 58.2583L44.3917 58.5798L43.4372 59.2386L44.7219 61.1018L45.6763 60.443H45.6741Z" fill="black"/>
<path d="M46.1468 57.1558L45.708 57.5203L50.1207 62.8179L49.8199 63.0692L45.4072 57.7716L44.9616 58.1429L44.7128 57.844L45.8957 56.8569L46.1468 57.1558Z" fill="black"/>
<path d="M49.7317 57.2915L50.0167 57.5745L48.8677 58.7336L48.5827 58.4506L49.7317 57.2915Z" fill="black"/>
<path d="M0.81424 39.8635C0.81424 39.8635 3.82465 40.2303 5.61144 43.4972C7.39597 46.764 8.25318 47.3278 8.25318 47.3278C8.25318 47.3278 3.61656 45.4215 2.62817 43.5379C1.63978 41.6543 0.81424 39.8635 0.81424 39.8635Z" fill="#101010"/>
<path d="M0 33.4136C0 33.4136 0.701147 36.239 1.03589 37.2669C1.37063 38.2947 2.89732 39.7278 3.98296 40.2892C3.98296 40.2892 3.68894 38.4011 3.47181 37.6404C3.01493 36.033 2.55353 34.0249 0 33.4114V33.4136Z" fill="#101010"/>
<path d="M0.741879 26.7239C0.741879 26.7239 0.585818 30.7379 0.963532 31.6208C1.34125 32.5037 3.02174 34.6205 3.02174 34.6205C3.02174 34.6205 3.11447 32.1732 3.05114 31.4012C2.96067 30.2986 2.70961 28.0189 0.744141 26.7239H0.741879Z" fill="#101010"/>
<path d="M3.31576 20.8691C3.31576 20.8691 1.96549 25.1005 1.95418 26.1351C1.94513 27.1674 2.71413 28.1432 2.71413 28.1432C2.71413 28.1432 2.8996 26.3932 3.17553 25.354C3.33838 24.7428 4.20237 21.9626 3.31576 20.8691Z" fill="#101010"/>
<path d="M3.18683 45.9583C3.18683 45.9583 4.88994 46.8253 6.36234 47.3257C8.63315 48.0977 12.4533 50.8054 12.7586 51.4257C12.7586 51.4257 9.95855 50.7827 8.80731 50.6605C7.65381 50.536 4.6615 50.1828 3.18683 45.9605V45.9583Z" fill="#101010"/>
<path d="M57.9938 39.8635C57.9938 39.8635 54.9834 40.2303 53.1966 43.4972C51.4121 46.764 50.5549 47.3278 50.5549 47.3278C50.5549 47.3278 55.1915 45.4215 56.1799 43.5379C57.1683 41.6543 57.9938 39.8635 57.9938 39.8635Z" fill="#101010"/>
<path d="M58.8081 33.4136C58.8081 33.4136 58.107 36.239 57.7722 37.2669C57.4375 38.2947 55.9108 39.7278 54.8251 40.2892C54.8251 40.2892 55.1192 38.4011 55.3363 37.6404C55.7932 36.033 56.2546 34.0249 58.8081 33.4114V33.4136Z" fill="#101010"/>
<path d="M58.0662 26.7239C58.0662 26.7239 58.2223 30.7379 57.8446 31.6208C57.4669 32.5037 55.7864 34.6205 55.7864 34.6205C55.7864 34.6205 55.6936 32.1732 55.757 31.4012C55.8474 30.2986 56.0985 28.0189 58.064 26.7239H58.0662Z" fill="#101010"/>
<path d="M55.4924 20.8691C55.4924 20.8691 56.8426 25.1005 56.8539 26.1351C56.863 27.1674 56.094 28.1432 56.094 28.1432C56.094 28.1432 55.9085 26.3932 55.6326 25.354C55.4697 24.7428 54.6057 21.9626 55.4924 20.8691Z" fill="#101010"/>
<path d="M55.6213 45.9583C55.6213 45.9583 53.9182 46.8253 52.4458 47.3257C50.175 48.0977 46.3548 50.8054 46.0495 51.4257C46.0495 51.4257 48.8496 50.7827 50.0008 50.6605C51.1543 50.536 54.1466 50.1828 55.6213 45.9605V45.9583Z" fill="#101010"/>
<path d="M32.9245 53.6188C32.6802 53.6188 32.4473 53.5215 32.2708 53.3449C31.8977 52.9713 31.909 52.3736 32.2957 51.9865L33.8337 50.447L34.1753 50.7889L32.6373 52.3284C32.4382 52.5276 32.4269 52.8174 32.6124 53.003C32.7277 53.1185 32.8544 53.1389 32.9403 53.1366C33.0647 53.1321 33.1891 53.0755 33.2864 52.9781L34.8244 51.4409L35.1659 51.7827L33.6279 53.32C33.4447 53.5033 33.205 53.6098 32.9584 53.6188C32.9471 53.6188 32.9358 53.6188 32.9245 53.6188Z" fill="#101010"/>
<path d="M27.5437 58.552L26.9172 57.9249L28.1748 56.6662L28.4598 56.9514L32.4043 53.0054L32.7458 53.3472L27.5437 58.552Z" fill="#101010"/>
<path d="M28.3421 53.6169C28.0911 53.6169 27.84 53.5172 27.641 53.318L26.103 51.7808L26.4445 51.4389L27.9825 52.9762C28.1816 53.1754 28.4711 53.1867 28.6565 53.0011C28.842 52.8154 28.8307 52.5256 28.6316 52.3264L27.0959 50.7869L27.4374 50.4451L28.9732 51.9845C29.3599 52.3739 29.3712 52.9694 28.9981 53.3429C28.8149 53.5263 28.5796 53.6169 28.3421 53.6169Z" fill="#101010"/>
<path d="M33.9898 58.552L28.79 53.3472L29.1315 53.0054L33.0738 56.9514L33.3587 56.6662L34.6163 57.9249L33.9898 58.552Z" fill="#101010"/>
<path d="M20.8919 61.1606C21.0056 61.1606 21.0977 61.0683 21.0977 60.9546C21.0977 60.8408 21.0056 60.7485 20.8919 60.7485C20.7782 60.7485 20.6861 60.8408 20.6861 60.9546C20.6861 61.0683 20.7782 61.1606 20.8919 61.1606Z" fill="black"/>
<path d="M21.9866 61.5387C22.1003 61.5387 22.1924 61.4465 22.1924 61.3327C22.1924 61.2189 22.1003 61.1267 21.9866 61.1267C21.8729 61.1267 21.7808 61.2189 21.7808 61.3327C21.7808 61.4465 21.8729 61.5387 21.9866 61.5387Z" fill="black"/>
<path d="M36.9857 -0.0023136L36.3245 0.36792L36.447 0.587241L37.1083 0.217007L36.9857 -0.0023136Z" fill="black"/>
<path d="M35.2858 47.1944C34.8764 47.242 34.4647 47.2578 34.0463 47.251C33.8925 46.7507 33.7003 46.2685 33.4718 45.8066C33.9151 46.436 34.5462 46.9296 35.2858 47.1967V47.1944Z" fill="#FBBA16"/>
<path d="M32.0673 47.5319C31.6556 47.5319 31.244 47.5047 30.8301 47.4504C30.7328 46.9365 30.5949 46.4361 30.4185 45.9517C30.7894 46.6263 31.3616 47.1855 32.0673 47.5319Z" fill="#FBBA16"/>
<path d="M43.6023 24.7655C43.1002 25.0145 42.5347 25.1503 41.9376 25.1503C41.1189 25.1503 40.3566 24.8922 39.7324 24.4508C40.2345 23.4659 41.0171 22.6419 41.9715 22.094C42.4601 22.3747 42.9034 22.7256 43.2879 23.1377C43.4236 23.6697 43.5276 24.213 43.6023 24.7677V24.7655Z" fill="#BA5458"/>
<path d="M43.3354 22.821C42.9509 22.4112 42.5076 22.058 42.019 21.7773C42.2972 21.6165 42.5867 21.4762 42.8898 21.3652C43.064 21.8384 43.211 22.3274 43.3354 22.821Z" fill="#F0BB1B"/>
<path d="M41.8245 21.8427C40.9809 21.3515 39.9993 21.073 38.9544 21.073C38.6173 21.073 38.2871 21.1024 37.9637 21.1613C37.9207 21.1658 37.8778 21.1749 37.8348 21.1839C37.5724 21.6865 37.2897 22.1801 36.9911 22.66C36.1068 24.1022 35.0732 25.4469 33.9151 26.6763C33.6958 26.9072 33.4696 27.1358 33.2434 27.3622C33.0941 27.5094 32.9381 27.6566 32.7865 27.8037C32.2663 28.6006 32.0356 29.6013 32.2392 30.6563C32.5852 32.4471 34.2069 33.742 36.0322 33.7262C36.3895 33.7217 36.7356 33.6719 37.0613 33.5745C35.3446 36.0694 32.4654 37.7085 29.2062 37.7085C24.5039 37.7085 20.5911 34.2922 19.8153 29.805C19.2634 29.7077 18.6957 29.6556 18.1145 29.6556C16.4679 29.6556 14.9209 30.0699 13.5683 30.8057C12.218 31.5415 11.0623 32.592 10.2051 33.8643C11.8041 34.2356 13.4575 34.4484 15.1583 34.4914C17.0695 37.6768 20.098 40.1128 23.7078 41.2448C24.1579 41.3896 24.617 41.5096 25.0875 41.6092C25.6099 41.7202 26.1392 41.8039 26.6798 41.8628C28.1567 42.7005 29.3826 43.9207 30.2307 45.3742C30.0226 44.8422 29.9299 44.2535 29.9887 43.6423C30.0272 43.2302 30.1267 42.8408 30.2828 42.4809C31.4001 43.1601 32.3658 44.0566 33.1213 45.1184C32.8679 44.609 32.7232 44.0294 32.7232 43.4159C32.7232 42.5035 33.0398 41.6681 33.5714 41.0116C33.5804 41.007 33.594 41.007 33.6008 40.998C42.6297 34.7269 39.8251 29.8616 39.8251 29.8616L39.8093 29.8367C39.3796 29.1485 39.0968 28.3629 38.9951 27.5185C38.9657 27.2875 38.9498 27.0521 38.9498 26.8121C38.9498 25.8703 39.1737 24.9806 39.5809 24.1972C40.083 23.2147 40.8655 22.3906 41.82 21.8405L41.8245 21.8427ZM38.8413 22.3408C38.6287 22.3408 38.4568 22.171 38.4568 21.9582C38.4568 21.7454 38.6287 21.5733 38.8413 21.5733C39.0539 21.5733 39.2258 21.7454 39.2258 21.9582C39.2258 22.171 39.0539 22.3408 38.8413 22.3408Z" fill="white"/>
<path d="M41.8856 21.6003L42.7812 21.1475C42.7812 21.1475 41.3699 18.0278 38.8277 17.5977H35.279C35.279 17.5977 35.1795 20.1106 37.7692 20.8577C37.8438 20.8804 37.9252 20.8849 38.0021 20.8736C38.4794 20.8102 40.3024 20.5861 41.8856 21.6003Z" fill="#BA5458"/>
<path d="M36.4935 20.2216C36.4935 20.2216 37.3756 18.3924 39.755 17.8875C39.755 17.8875 38.8706 16.3729 39.2099 15.6349C39.2099 15.6349 39.5039 17.1404 39.8093 17.2559C39.8093 17.2559 42.0054 16.5835 41.1369 14.933C41.1369 14.933 40.5376 13.2736 39.0674 13.6403L37.4299 14.7542L37.9524 13.9641C37.9524 13.9641 37.7782 13.9165 37.4955 13.8939C35.7788 13.7626 34.2725 15.0145 33.9649 16.751C33.9264 16.9638 33.9626 17.7607 33.9332 18.0233L33.6663 16.5789C33.6663 16.5789 32.0379 17.4664 32.5558 19.1304C32.5558 19.1304 33.2479 20.9189 35.5775 19.9545C35.5775 19.9545 35.9371 19.6737 36.498 20.2239L36.4935 20.2216Z" fill="#F8F8F8"/>
<path d="M36.8939 33.6017C34.9239 35.9041 31.8886 37.2308 28.6498 36.8866C27.2882 36.7418 26.0216 36.3207 24.9066 35.6754C24.2529 35.3042 23.7146 34.9102 23.1763 34.3986L31.011 34.3284L30.95 33.1692L21.9708 33.0787C21.7537 32.807 21.7944 32.8297 21.6112 32.5353L30.9002 32.1958L30.8414 31.0638L20.8716 31.1C20.754 30.8487 20.7472 30.8396 20.6544 30.5748L30.7962 30.1378L30.7442 29.1281L20.2926 29.2141C20.2247 28.9402 20.2677 29.1077 20.2247 28.8247L22.8076 28.4625C27.8717 27.5592 31.6376 27.6792 32.9924 27.7697C32.6825 28.2542 32.4767 28.8157 32.4133 29.4292C32.1917 31.5302 33.7161 33.4183 35.8173 33.6401C36.1 33.6673 36.3737 33.6696 36.6428 33.6379C36.7265 33.6288 36.8125 33.6175 36.8962 33.6017H36.8939Z" fill="white"/>
</g>
<defs>
<clipPath id="clip0_345_54">
<rect width="58.8081" height="70.3272" fill="white"/>
</clipPath>
</defs>
</svg>
