<svg width="79" height="79" viewBox="0 0 79 79" fill="none" xmlns="http://www.w3.org/2000/svg">
<path d="M34.0414 6.29591C36.8294 3.2347 41.6458 3.2347 44.4339 6.29591L48.0189 10.2325C49.4277 11.7796 51.4529 12.6184 53.5434 12.5207L58.8619 12.2722C62.9976 12.0789 66.4038 15.4848 66.2105 19.6208L65.9618 24.9393C65.8641 27.0296 66.7029 29.0547 68.2501 30.4637L72.1866 34.0487C75.248 36.8368 75.248 41.6531 72.1866 44.4412L68.2501 48.0262C66.7029 49.435 65.8641 51.4602 65.9618 53.5507L66.2105 58.8693C66.4038 63.005 62.9976 66.4111 58.8619 66.2179L53.5434 65.9691C51.4529 65.8714 49.4277 66.7102 48.0189 68.2574L44.4339 72.1939C41.6458 75.2554 36.8294 75.2554 34.0414 72.1939L30.4563 68.2574C29.0474 66.7102 27.0223 65.8714 24.932 65.9691L19.6134 66.2179C15.4775 66.4111 12.0715 63.005 12.2649 58.8693L12.5134 53.5507C12.6111 51.4602 11.7723 49.435 10.2251 48.0262L6.28858 44.4412C3.22737 41.6531 3.22737 36.8368 6.28858 34.0487L10.2251 30.4637C11.7723 29.0547 12.6111 27.0296 12.5134 24.9393L12.2649 19.6207C12.0715 15.4848 15.4775 12.0789 19.6134 12.2722L24.932 12.5207C27.0223 12.6184 29.0474 11.7796 30.4563 10.2325L34.0414 6.29591Z" stroke="white" stroke-width="7.70444"/>
<path d="M28.6958 39.2449L35.7239 46.2731L49.7802 32.2168" stroke="white" stroke-width="7.70444" stroke-linecap="round" stroke-linejoin="round"/>
</svg>
