<svg width="76" height="81" viewBox="0 0 76 81" fill="none" xmlns="http://www.w3.org/2000/svg">
<path d="M73.2447 3L69.3286 6.91611" stroke="white" stroke-width="5.20108" stroke-linecap="round" stroke-linejoin="round"/>
<path d="M2.75488 3L6.67099 6.91611" stroke="white" stroke-width="5.20108" stroke-linecap="round" stroke-linejoin="round"/>
<path d="M73.2447 57.8255L69.3286 53.9094" stroke="white" stroke-width="5.20108" stroke-linecap="round" stroke-linejoin="round"/>
<path d="M2.75488 57.8255L6.67099 53.9094" stroke="white" stroke-width="5.20108" stroke-linecap="round" stroke-linejoin="round"/>
<path d="M26.2517 65.6578H49.7484" stroke="white" stroke-width="5.20108" stroke-linecap="round" stroke-linejoin="round"/>
<path d="M30.1677 77.4061H45.8322" stroke="white" stroke-width="5.20108" stroke-linecap="round" stroke-linejoin="round"/>
<path d="M37.999 6.91614C22.3341 6.91614 14.3146 14.5537 14.5025 26.4967C14.5941 32.3195 16.46 36.287 20.3767 40.2031C24.2934 44.1192 26.2514 46.0773 26.2508 53.9095H49.7473C49.7481 46.0776 51.7061 44.1192 55.6211 40.2035L55.6215 40.2031C59.5372 36.287 61.4044 32.3195 61.4956 26.4967C61.6836 14.5537 53.6642 6.91614 37.999 6.91614Z" stroke="white" stroke-width="5.20108" stroke-linecap="round" stroke-linejoin="round"/>
</svg>
