<svg width="83" height="100" viewBox="0 0 83 100" fill="none" xmlns="http://www.w3.org/2000/svg">
<g clip-path="url(#clip0_4_21)">
<path d="M41.7442 78.0859C59.2437 78.0859 73.4298 63.8861 73.4298 46.3697C73.4298 28.8533 59.2437 14.6535 41.7442 14.6535C24.2447 14.6535 10.0586 28.8533 10.0586 46.3697C10.0586 63.8861 24.2447 78.0859 41.7442 78.0859Z" fill="#F58449"/>
<path d="M27.1751 6.48639L27.3474 7.01041L25.2661 7.70059L25.0938 7.17657L27.1751 6.48639Z" fill="black"/>
<path d="M30.1598 2.52107L30.6514 4.5277C30.7918 5.10285 30.4534 5.69717 29.9044 5.83137L29.4064 5.95279L30.7886 11.6148L30.2938 11.7362L27.9156 1.99385L28.9084 1.75101C29.4575 1.61681 30.0289 1.97149 30.1629 2.52107H30.1598ZM29.665 2.64249C29.6011 2.37409 29.3202 2.20155 29.0361 2.27184L28.5381 2.39326L29.2755 5.41918L29.7735 5.29776C30.0608 5.22746 30.2268 4.94628 30.1534 4.65231L29.665 2.64569V2.64249Z" fill="black"/>
<path d="M33.8787 1.70947L35.2194 9.71361C35.3151 10.2983 34.9576 10.8479 34.3734 10.9438C33.7893 11.0428 33.2594 10.6402 33.1636 10.0587L31.8229 2.05456C31.7271 1.48261 32.0878 0.936216 32.6816 0.833967C33.2402 0.741305 33.7765 1.09917 33.8787 1.70947ZM33.3615 1.79574C33.3136 1.51136 33.0615 1.31645 32.7582 1.36758C32.4677 1.41551 32.2921 1.68391 32.34 1.96829L33.6807 9.97243C33.7318 10.2696 33.9936 10.4645 34.2873 10.4166C34.565 10.3686 34.7533 10.1002 34.7022 9.80308L33.3647 1.79894L33.3615 1.79574Z" fill="black"/>
<path d="M38.5073 9.82545L38.5552 10.3591L36.4931 10.5508L35.5705 0.562371L36.0813 0.514442L36.9527 9.96923L38.5073 9.82545Z" fill="black"/>
<path d="M41.5399 9.7264L41.5526 10.2632L39.4809 10.3111L39.2543 0.281191L39.765 0.26841L39.9789 9.75835L41.5399 9.7232V9.7264Z" fill="black"/>
<path d="M44.9013 4.00687L44.8758 4.54367L43.318 4.47018L43.0626 9.76793L44.6204 9.84142L44.5948 10.3782L42.5263 10.2792L43.0051 0.262016L45.0737 0.36107L45.0481 0.897874L43.4903 0.824383L43.3403 3.93338L44.8981 4.00687H44.9013Z" fill="black"/>
<path d="M48.3967 5.4671L47.7487 10.7297L47.2284 10.6658L47.8764 5.4032C47.9147 5.10284 47.7136 4.84083 47.4327 4.80568L46.9124 4.74178L46.2005 10.538L45.6802 10.4741L46.906 0.524025L47.9466 0.651836C48.5627 0.728522 48.9202 1.23018 48.8468 1.83089L48.5946 3.88225C48.5563 4.1826 48.4191 4.42864 48.1509 4.63314C48.3552 4.83763 48.4255 5.15396 48.3999 5.4671H48.3967ZM47.4997 4.27207C47.7806 4.30722 48.036 4.10272 48.0711 3.81515L48.3233 1.76379C48.3584 1.47621 48.1605 1.2174 47.8796 1.18225L47.3593 1.11834L46.9794 4.20817L47.4997 4.27207Z" fill="black"/>
<path d="M49.4661 11.0333L48.9617 10.9406L50.7749 1.08001L51.2793 1.17267L49.4693 11.0333H49.4661Z" fill="black"/>
<path d="M54.8449 2.99397L52.6838 11.765L52.1731 11.6404L53.568 5.98474L52.5625 5.73551L51.1675 11.3911L50.6568 11.2665L52.8211 2.49551C52.9551 1.94592 53.517 1.57527 54.082 1.71267C54.631 1.84687 54.9981 2.37729 54.8481 2.99397H54.8449ZM53.6957 5.46391L54.3342 2.86936C54.4044 2.58817 54.2384 2.30699 53.9511 2.23669C53.6766 2.16959 53.3989 2.34214 53.3286 2.62332L52.6902 5.21788L53.6957 5.46711V5.46391Z" fill="black"/>
<path d="M57.9477 7.23728L57.7721 7.7613L55.694 7.06473L55.8696 6.54071L57.9477 7.23728Z" fill="black"/>
<path d="M15.1565 82.7158L14.7574 83.1184L13.123 81.4952L13.5189 81.0926L15.1533 82.7158H15.1565Z" fill="black"/>
<path d="M18.3806 84.8247L18.0326 85.2529L16.7621 84.2176L13.3337 88.4386L14.6042 89.4738L14.2563 89.902L12.5708 88.528L19.0541 80.5494L20.7396 81.9234L20.3917 82.3516L19.1212 81.3163L17.1069 83.7926L18.3774 84.8279L18.3806 84.8247Z" fill="black"/>
<path d="M17.8219 91.7393L17.5123 92.1962L15.7119 90.9756L21.4802 82.457L21.9239 82.7574L16.4653 90.819L17.8219 91.7393Z" fill="black"/>
<path d="M26.8431 87.3586L27.0761 86.8601C27.2006 86.5917 27.0857 86.2722 26.8175 86.1444C26.5494 86.0197 26.2302 86.1348 26.1025 86.4032L22.6294 93.8098C22.4921 94.1038 22.6166 94.3977 22.8879 94.5255C23.1593 94.6533 23.4753 94.5351 23.603 94.2667L25.6843 89.8285L25.1991 89.6016L25.4321 89.1032L26.4153 89.5665L24.0978 94.5032C23.8584 95.0144 23.2008 95.2828 22.6517 95.0272C22.1154 94.7748 21.8537 94.1677 22.1314 93.5797L25.6045 86.1731C25.8439 85.6619 26.4632 85.3743 27.0506 85.6491C27.5741 85.8951 27.8358 86.5342 27.5741 87.0965L27.341 87.595L26.8431 87.3618V87.3586Z" fill="black"/>
<path d="M31.0504 87.3266L27.9412 95.9794C27.7465 96.5226 27.124 96.8389 26.5526 96.6344C25.9812 96.4299 25.6747 95.8228 25.8854 95.2381L28.9946 86.5853L29.5117 86.7706L26.4025 95.4234C26.3036 95.7014 26.4409 96.0209 26.7345 96.1264C27.0123 96.2286 27.3251 96.0689 27.4272 95.7909L30.5364 87.1381L31.0536 87.3234L31.0504 87.3266Z" fill="black"/>
<path d="M33.2274 91.8L33.0902 92.3336L31.5037 91.9246L30.1534 97.1904L31.7399 97.5994L31.6026 98.133L29.499 97.593L32.0559 87.6334L34.1596 88.1734L34.0223 88.707L32.4358 88.298L31.6409 91.391L33.2274 91.8Z" fill="black"/>
<path d="M36.4962 93.4999L35.6312 98.8711L35.0885 98.7816L35.9536 93.4104C36.0014 93.1036 35.8035 92.8289 35.5098 92.7809L34.9672 92.6947L34.0159 98.6091L33.4732 98.5196L35.1076 88.3651L36.1962 88.5408C36.8378 88.6431 37.1953 89.1735 37.0964 89.7902L36.7612 91.8831C36.7101 92.1898 36.5569 92.4358 36.2696 92.6339C36.4771 92.8544 36.5377 93.1771 36.5026 93.5031L36.4962 93.4999ZM35.5992 92.2377C35.8929 92.2857 36.1674 92.0876 36.2153 91.7936L36.5537 89.7007C36.6016 89.4067 36.4037 89.1319 36.11 89.084L35.5673 88.9945L35.0598 92.1483L35.6024 92.2377H35.5992Z" fill="black"/>
<path d="M40.4386 89.9244L39.8927 98.2289C39.8512 98.836 39.3564 99.2993 38.7371 99.2577C38.1179 99.2162 37.6709 98.6922 37.7124 98.0851L38.2583 89.7806C38.2966 89.1894 38.7946 88.7261 39.4298 88.7677C40.0204 88.806 40.4833 89.2885 40.4418 89.9244H40.4386ZM39.8895 89.886C39.9087 89.5889 39.698 89.3364 39.3756 89.3141C39.0659 89.2949 38.8233 89.5186 38.8042 89.8125L38.2583 98.117C38.2392 98.427 38.4626 98.6826 38.7723 98.7017C39.0691 98.7209 39.3245 98.4973 39.3437 98.1873L39.8895 89.8828V89.886Z" fill="black"/>
<path d="M45.6546 90.3461L45.6035 89.7966C45.5748 89.4994 45.3163 89.2853 45.0194 89.3109C44.7257 89.3396 44.5086 89.5984 44.5342 89.8956L45.2811 98.0435C45.3099 98.3663 45.5684 98.5548 45.8653 98.5292C46.1622 98.5036 46.3761 98.2416 46.3505 97.9445L45.9036 93.0621L45.3705 93.11L45.3194 92.5605L46.4016 92.4614L46.8996 97.8934C46.9507 98.4557 46.5229 99.0213 45.9164 99.0756C45.3258 99.1299 44.7959 98.7401 44.7353 98.0915L43.9883 89.9435C43.9372 89.3812 44.3235 88.8188 44.9715 88.7613C45.5461 88.7102 46.0983 89.1255 46.1526 89.7454L46.2037 90.295L45.6546 90.3461Z" fill="black"/>
<path d="M49.4437 89.1192L50.9728 97.2958C51.0845 97.8934 50.7174 98.4653 50.1077 98.5803C49.498 98.6954 48.9362 98.296 48.8245 97.7016L47.2954 89.525C47.1869 88.9434 47.554 88.3715 48.1764 88.2532C48.7574 88.1446 49.3288 88.4961 49.4437 89.1224V89.1192ZM48.9043 89.2214C48.85 88.9306 48.585 88.7357 48.2658 88.7932C47.9626 88.8508 47.7838 89.1287 47.8381 89.4195L49.3671 97.5962C49.4246 97.9029 49.7023 98.0947 50.0088 98.0371C50.2993 97.9828 50.4908 97.7016 50.4333 97.3981L48.9043 89.2214Z" fill="black"/>
<path d="M52.3965 87.3394L54.9375 96.1775C55.0971 96.7335 54.7779 97.3533 54.1937 97.5227C53.6095 97.692 53.0062 97.3789 52.837 96.7814L50.2961 87.9465L50.826 87.7931L53.3669 96.628C53.4499 96.9124 53.75 97.0913 54.0469 97.0051C54.331 96.922 54.4906 96.612 54.4108 96.3277L51.8698 87.4928L52.3997 87.3394H52.3965Z" fill="black"/>
<path d="M57.2295 90.7008L59.2182 95.7589L58.7075 95.9602L56.7187 90.9021C56.6038 90.6113 56.2942 90.4771 56.0196 90.5858L55.5089 90.7871L57.6987 96.3596L57.188 96.5609L53.4276 86.9943L54.4523 86.5917C55.0556 86.3552 55.6334 86.6268 55.86 87.2052L56.6357 89.1767C56.7506 89.4642 56.7411 89.7582 56.5942 90.0713C56.8847 90.1544 57.105 90.4036 57.2359 90.7008H57.2295ZM55.8153 90.0745C56.0899 89.9659 56.2271 89.656 56.1186 89.378L55.3429 87.4065C55.2344 87.1317 54.9247 86.9943 54.647 87.1029L54.1362 87.3042L55.3046 90.2726L55.8153 90.0713V90.0745Z" fill="black"/>
<path d="M60.2333 84.9014L64.6002 93.0717L64.115 93.3305L59.7481 85.1602C59.6077 84.8982 59.2821 84.7991 59.0203 84.9397C58.749 85.0867 58.6468 85.4126 58.7873 85.6747L63.1542 93.845L62.669 94.1038L58.3021 85.9335C58.1616 85.6715 57.8264 85.5788 57.5519 85.7258C57.2774 85.8728 57.1784 86.1987 57.3189 86.4607L61.6858 94.631L61.2006 94.8898L56.3197 85.7609L56.8049 85.5021L56.9326 85.7386C56.9645 85.5277 57.1656 85.3104 57.3412 85.2145C57.6285 85.0612 57.9126 85.0548 58.1999 85.173C58.2925 84.8663 58.4617 84.6138 58.7745 84.4477C59.2852 84.1761 59.9333 84.339 60.2333 84.9014Z" fill="black"/>
<path d="M64.463 85.3072L64.7758 85.7609L63.4287 86.6907L66.5156 91.1705L67.8627 90.2407L68.1755 90.6944L66.3847 91.931L60.5494 83.4603L62.3402 82.2238L62.653 82.6775L61.3059 83.6073L63.1191 86.237L64.4662 85.3072H64.463Z" fill="black"/>
<path d="M65.1301 80.6677L64.5109 81.1821L70.7388 88.659L70.3142 89.0137L64.0863 81.5368L63.4574 82.0608L63.1063 81.639L64.7758 80.2459L65.1301 80.6677Z" fill="black"/>
<path d="M70.1898 80.8594L70.592 81.2588L68.9704 82.8948L68.5681 82.4954L70.1898 80.8594Z" fill="black"/>
<path d="M1.14917 56.2622C1.14917 56.2622 5.39797 56.7799 7.91979 61.3906C10.4384 66.0014 11.6483 66.797 11.6483 66.797C11.6483 66.797 5.10429 64.1066 3.7093 61.4482C2.31432 58.7897 1.14917 56.2622 1.14917 56.2622Z" fill="#101010"/>
<path d="M0 47.1589C0 47.1589 0.989577 51.1466 1.46202 52.5973C1.93446 54.0479 4.08919 56.0705 5.62144 56.8629C5.62144 56.8629 5.20645 54.1981 4.9 53.1245C4.25518 50.8558 3.60398 48.0216 0 47.1557V47.1589Z" fill="#101010"/>
<path d="M1.04704 37.7169C1.04704 37.7169 0.826784 43.3821 1.35988 44.6283C1.89297 45.8744 4.26477 48.862 4.26477 48.862C4.26477 48.862 4.39565 45.4079 4.30627 44.3183C4.17858 42.7622 3.82425 39.5446 1.05024 37.7169H1.04704Z" fill="#101010"/>
<path d="M4.67974 29.454C4.67974 29.454 2.77401 35.4259 2.75805 36.8861C2.74528 38.3432 3.83062 39.7203 3.83062 39.7203C3.83062 39.7203 4.09238 37.2504 4.48183 35.7838C4.71166 34.9211 5.93108 30.9973 4.67974 29.454Z" fill="#101010"/>
<path d="M4.49777 64.8639C4.49777 64.8639 6.90149 66.0877 8.9796 66.7938C12.1846 67.8834 17.5762 71.705 18.0071 72.5805C18.0071 72.5805 14.0552 71.673 12.4304 71.5005C10.8023 71.3247 6.57908 70.8263 4.49777 64.8671V64.8639Z" fill="#101010"/>
<path d="M81.8508 56.2622C81.8508 56.2622 77.602 56.7799 75.0802 61.3906C72.5616 66.0014 71.3517 66.797 71.3517 66.797C71.3517 66.797 77.8957 64.1066 79.2907 61.4482C80.6857 58.7897 81.8508 56.2622 81.8508 56.2622Z" fill="#101010"/>
<path d="M83 47.1589C83 47.1589 82.0105 51.1466 81.538 52.5973C81.0656 54.0479 78.9108 56.0705 77.3786 56.8629C77.3786 56.8629 77.7936 54.1981 78.1 53.1245C78.7449 50.8558 79.3961 48.0216 83 47.1557V47.1589Z" fill="#101010"/>
<path d="M81.953 37.7169C81.953 37.7169 82.1732 43.3821 81.6402 44.6283C81.1071 45.8744 78.7353 48.862 78.7353 48.862C78.7353 48.862 78.6044 45.4079 78.6938 44.3183C78.8215 42.7622 79.1758 39.5446 81.9498 37.7169H81.953Z" fill="#101010"/>
<path d="M78.3203 29.454C78.3203 29.454 80.226 35.4259 80.242 36.8861C80.2547 38.3432 79.1694 39.7203 79.1694 39.7203C79.1694 39.7203 78.9076 37.2504 78.5182 35.7838C78.2883 34.9211 77.0689 30.9973 78.3203 29.454Z" fill="#101010"/>
<path d="M78.5022 64.8639C78.5022 64.8639 76.0985 66.0877 74.0204 66.7938C70.8155 67.8834 65.4239 71.7049 64.9929 72.5805C64.9929 72.5805 68.9448 71.673 70.5697 71.5005C72.1977 71.3247 76.4209 70.8263 78.5022 64.8671V64.8639Z" fill="#101010"/>
<path d="M46.4686 75.6767C46.1239 75.6767 45.7951 75.5393 45.5461 75.29C45.0194 74.7628 45.0353 73.9193 45.5812 73.3729L47.7519 71.2001L48.2339 71.6826L46.0632 73.8554C45.7823 74.1366 45.7663 74.5455 46.0281 74.8076C46.1909 74.9705 46.3697 74.9993 46.491 74.9961C46.6665 74.9897 46.8421 74.9098 46.9794 74.7724L49.1501 72.6028L49.6321 73.0853L47.4614 75.2549C47.2028 75.5137 46.8645 75.6639 46.5165 75.6767C46.5005 75.6767 46.4846 75.6767 46.4686 75.6767Z" fill="#101010"/>
<path d="M38.8744 82.6392L37.9902 81.7541L39.765 79.9775L40.1672 80.3801L45.7344 74.8108L46.2164 75.2932L38.8744 82.6392Z" fill="#101010"/>
<path d="M40.0013 75.6735C39.6469 75.6735 39.2926 75.5329 39.0117 75.2517L36.841 73.0821L37.323 72.5996L39.4937 74.7692C39.7746 75.0504 40.1832 75.0664 40.445 74.8044C40.7067 74.5423 40.6908 74.1334 40.4099 73.8522L38.2424 71.6794L38.7244 71.1969L40.8919 73.3697C41.4378 73.9193 41.4537 74.7596 40.927 75.2868C40.6684 75.5457 40.3364 75.6735 40.0013 75.6735Z" fill="#101010"/>
<path d="M47.9721 82.6392L40.6333 75.2932L41.1153 74.8108L46.6793 80.3801L47.0815 79.9775L48.8564 81.7541L47.9721 82.6392Z" fill="#101010"/>
<path d="M29.4862 86.3201C29.6466 86.3201 29.7767 86.1899 29.7767 86.0293C29.7767 85.8687 29.6466 85.7386 29.4862 85.7386C29.3258 85.7386 29.1957 85.8687 29.1957 86.0293C29.1957 86.1899 29.3258 86.3201 29.4862 86.3201Z" fill="black"/>
<path d="M31.0312 86.8537C31.1917 86.8537 31.3217 86.7235 31.3217 86.5629C31.3217 86.4024 31.1917 86.2722 31.0312 86.2722C30.8708 86.2722 30.7408 86.4024 30.7408 86.5629C30.7408 86.7235 30.8708 86.8537 31.0312 86.8537Z" fill="black"/>
<path d="M52.2005 -0.00295947L51.2672 0.519577L51.4402 0.82912L52.3735 0.306583L52.2005 -0.00295947Z" fill="black"/>
<path d="M49.8013 66.6085C49.2235 66.6756 48.6425 66.698 48.052 66.6884C47.8349 65.9822 47.5636 65.3016 47.2411 64.6498C47.8668 65.5381 48.7574 66.2347 49.8013 66.6117V66.6085Z" fill="#FBBA16"/>
<path d="M45.2588 67.0846C44.6778 67.0846 44.0968 67.0463 43.5127 66.9696C43.3754 66.2442 43.1807 65.5381 42.9317 64.8543C43.4552 65.8065 44.2628 66.5957 45.2588 67.0846Z" fill="#FBBA16"/>
<path d="M61.5389 34.953C60.8303 35.3045 60.0322 35.4962 59.1895 35.4962C58.0339 35.4962 56.9581 35.1319 56.0771 34.5089C56.7858 33.1189 57.8903 31.9558 59.2374 31.1826C59.9269 31.5788 60.5525 32.0741 61.0952 32.6556C61.2867 33.4065 61.4336 34.1734 61.5389 34.9562V34.953Z" fill="#BA5458"/>
<path d="M61.1623 32.2083C60.6196 31.6299 59.9939 31.1315 59.3044 30.7353C59.6971 30.5084 60.1057 30.3103 60.5334 30.1537C60.7792 30.8215 60.9867 31.5117 61.1623 32.2083Z" fill="#F0BB1B"/>
<path d="M59.0299 30.8279C57.8392 30.1345 56.4538 29.7415 54.979 29.7415C54.5034 29.7415 54.0373 29.7831 53.5808 29.8661C53.5202 29.8725 53.4595 29.8853 53.3989 29.8981C53.0286 30.6074 52.6296 31.304 52.2082 31.9814C50.96 34.0168 49.5012 35.9148 47.8668 37.6498C47.5572 37.9757 47.2379 38.2985 46.9187 38.618C46.708 38.8257 46.4878 39.0334 46.2739 39.2411C45.5397 40.3658 45.2141 41.7781 45.5014 43.2671C45.9898 45.7945 48.2786 47.6222 50.8547 47.5999C51.3591 47.5935 51.8475 47.5232 52.3071 47.3858C49.8843 50.907 45.8206 53.2203 41.2207 53.2203C34.5841 53.2203 29.0617 48.3987 27.9667 42.0657C27.1878 41.9283 26.3866 41.8548 25.5662 41.8548C23.2423 41.8548 21.0588 42.4395 19.1499 43.478C17.2442 44.5164 15.613 45.999 14.4031 47.7948C16.66 48.3188 18.9935 48.6192 21.394 48.6799C24.0914 53.1756 28.3658 56.6137 33.4605 58.2113C34.0957 58.4158 34.7437 58.5852 35.4077 58.7258C36.1451 58.8824 36.8921 59.0006 37.655 59.0837C39.7395 60.2659 41.4697 61.9882 42.6667 64.0395C42.3731 63.2886 42.2422 62.4579 42.3252 61.5951C42.3794 61.0136 42.5199 60.464 42.7402 59.956C44.3171 60.9145 45.6802 62.1799 46.7464 63.6784C46.3888 62.9595 46.1845 62.1415 46.1845 61.2756C46.1845 59.9879 46.6314 58.8089 47.3816 57.8822C47.3944 57.8758 47.4135 57.8758 47.4231 57.8631C60.1663 49.0122 56.208 42.1455 56.208 42.1455L56.1856 42.1104C55.5791 41.139 55.1801 40.0303 55.0365 38.8385C54.995 38.5125 54.9726 38.1802 54.9726 37.8415C54.9726 36.5123 55.2886 35.2566 55.8632 34.151C56.5719 32.7643 57.6764 31.6012 59.0235 30.8247L59.0299 30.8279ZM54.8194 31.5309C54.5193 31.5309 54.2767 31.2912 54.2767 30.9909C54.2767 30.6905 54.5193 30.4477 54.8194 30.4477C55.1195 30.4477 55.3621 30.6905 55.3621 30.9909C55.3621 31.2912 55.1195 31.5309 54.8194 31.5309Z" fill="white"/>
<path d="M59.1161 30.486L60.3802 29.847C60.3802 29.847 58.3883 25.4439 54.8002 24.8368H49.7917C49.7917 24.8368 49.6512 28.3836 53.3063 29.438C53.4116 29.4699 53.5266 29.4763 53.6351 29.4604C54.3086 29.3709 56.8815 29.0546 59.1161 30.486Z" fill="#BA5458"/>
<path d="M51.5059 28.5401C51.5059 28.5401 52.7508 25.9583 56.109 25.2458C56.109 25.2458 54.8609 23.1082 55.3397 22.0665C55.3397 22.0665 55.7547 24.1914 56.1856 24.3543C56.1856 24.3543 59.2852 23.4053 58.0594 21.076C58.0594 21.076 57.2135 18.7338 55.1386 19.2515L52.8274 20.8236L53.5648 19.7084C53.5648 19.7084 53.319 19.6413 52.92 19.6094C50.4971 19.424 48.3712 21.191 47.937 23.6418C47.8828 23.9421 47.9338 25.0669 47.8923 25.4375L47.5157 23.3989C47.5157 23.3989 45.2173 24.6515 45.9483 27C45.9483 27 46.9251 29.5243 50.213 28.1631C50.213 28.1631 50.7206 27.7669 51.5123 28.5433L51.5059 28.5401Z" fill="#F8F8F8"/>
<path d="M52.0709 47.4241C49.2905 50.6737 45.0066 52.5461 40.4354 52.0605C38.5137 51.856 36.7261 51.2617 35.1523 50.351C34.2298 49.827 33.47 49.271 32.7103 48.5489L43.768 48.4498L43.6818 46.8138L31.0089 46.686C30.7024 46.3026 30.7599 46.3346 30.5013 45.9192L43.6116 45.4399L43.5286 43.8422L29.4575 43.8934C29.2915 43.5387 29.2819 43.5259 29.151 43.1521L43.4648 42.5354L43.3913 41.1103L28.6403 41.2317C28.5445 40.8451 28.6051 41.0815 28.5445 40.6821L32.19 40.1709C39.3373 38.896 44.6523 39.0653 46.5644 39.1931C46.127 39.8769 45.8366 40.6693 45.7472 41.5353C45.4343 44.5005 47.5859 47.1653 50.5514 47.4785C50.9504 47.5168 51.3367 47.52 51.7166 47.4753C51.8347 47.4625 51.956 47.4465 52.0741 47.4241H52.0709Z" fill="white"/>
</g>
<defs>
<clipPath id="clip0_4_21">
<rect width="83" height="99.2577" fill="white"/>
</clipPath>
</defs>
</svg>
